<svg xmlns="http://www.w3.org/2000/svg"  viewBox="0 0 30 30" width="30px" height="30px"><path fill="#8bb7f0" d="M15,28.5C7.556,28.5,1.5,22.444,1.5,15S7.556,1.5,15,1.5S28.5,7.556,28.5,15S22.444,28.5,15,28.5z"/><path fill="#4e7ab5" d="M15,2c7.168,0,13,5.832,13,13s-5.832,13-13,13S2,22.168,2,15S7.832,2,15,2 M15,1 C7.268,1,1,7.268,1,15s6.268,14,14,14s14-6.268,14-14S22.732,1,15,1L15,1z"/><path fill="#fff" d="M15 7.75A1.25 1.25 0 1 0 15 10.25 1.25 1.25 0 1 0 15 7.75zM16 21L16 12 13 12 13 13 14 13 14 21 13 21 13 22 17 22 17 21z"/></svg>